<svg width="550" height="151" viewBox="0 0 550 151" fill="none" xmlns="http://www.w3.org/2000/svg">
<g clip-path="url(#clip0_3_680)">
<path d="M72.3617 119.582L12.4218 46.2177C6.77053 39.3139 -2.10024 47.0031 0.455978 56.5939L20.9334 133.458C20.9334 133.458 25.8386 150.338 36.0911 150.338C39.877 150.338 49.9085 145.529 57.1212 137.289C64.3338 129.048 72.3756 119.595 72.3756 119.595L72.3617 119.582Z" fill="url(#paint0_linear_3_680)"/>
<path d="M166.431 9.7699C147.556 31.9555 72.3756 119.582 72.3756 119.582C72.3756 119.582 64.3338 129.035 57.1212 137.275C49.9085 145.515 39.877 150.325 36.0911 150.325H110.857C119.479 150.325 128.985 142.663 133.6 131.281C138.202 119.899 175.813 30.5637 179.972 19.5812C184.131 8.59861 185.319 -12.4157 166.444 9.7699H166.431Z" fill="url(#paint1_linear_3_680)"/>
<path d="M5.31974 46.1212C1.72721 49.8005 8.73264 64.2004 8.73264 64.2004C8.73264 64.2004 32.8993 116.261 55.0486 139.425C55.7533 138.722 56.458 138.033 57.1212 137.275C64.3339 129.035 72.3756 119.582 72.3756 119.582L15.821 50.3792C9.0228 41.6703 5.72044 45.6941 5.30592 46.1074L5.31974 46.1212Z" fill="url(#paint2_linear_3_680)"/>
<mask id="mask0_3_680" style="mask-type:alpha" maskUnits="userSpaceOnUse" x="36" y="0" width="144" height="151">
<path d="M109.296 122.655C118.001 108.668 167.481 28.4279 173.16 19.2918C178.839 10.1695 181.027 3.03733 179.135 1.12192C177.242 -0.793477 173.408 2.71464 169.664 6.18717C168.655 7.23444 167.591 8.41951 166.431 9.76994C147.556 31.9555 72.3756 119.582 72.3756 119.582C72.3756 119.582 64.3338 129.035 57.1212 137.275C49.9085 145.515 39.877 150.325 36.0911 150.325H72.9559C91.2363 150.325 100.605 136.627 109.309 122.641L109.296 122.655Z" fill="url(#paint3_linear_3_680)"/>
</mask>
<g mask="url(#mask0_3_680)">
<path d="M109.296 122.655C118.001 108.668 167.481 28.4279 173.16 19.2918C178.839 10.1695 181.027 3.03733 179.135 1.12192C177.242 -0.793477 173.408 2.71464 169.664 6.18717C168.655 7.23444 167.591 8.41951 166.431 9.76994C147.556 31.9555 72.3756 119.582 72.3756 119.582C72.3756 119.582 64.3338 129.035 57.1212 137.275C49.9085 145.515 39.877 150.325 36.0911 150.325H72.9559C91.2363 150.325 100.605 136.627 109.309 122.641L109.296 122.655Z" fill="url(#paint4_linear_3_680)"/>
<g style="mix-blend-mode:overlay" opacity="0.7">
<path d="M57.19 146.707C85.7665 150.159 111.223 96.2779 160.408 18.6988" stroke="url(#paint5_linear_3_680)" stroke-width="8.02497"/>
</g>
<g style="mix-blend-mode:overlay">
<path d="M32.162 149.216C49.7389 153.33 57.2184 136.875 123.412 60.2101" stroke="url(#paint6_linear_3_680)" stroke-width="2.00624"/>
</g>
</g>
<g style="mix-blend-mode:overlay">
<path d="M74.7952 149.59C96.4858 155.2 119.524 105.887 162.306 35.9017" stroke="url(#paint7_linear_3_680)" stroke-width="1.33749"/>
</g>
<g style="mix-blend-mode:overlay">
<path d="M40.0154 122.29C26.7286 100.194 19.8793 87.6597 8.6014 65.0718" stroke="url(#paint8_linear_3_680)" stroke-width="1.33749"/>
</g>
</g>
<path d="M219.981 150.046C216.148 150.046 213.297 149.183 211.431 147.457C209.597 145.697 208.68 143.024 208.68 139.437V114.513H212.281V139.437C212.281 142.042 212.897 143.971 214.131 145.224C215.397 146.476 217.348 147.102 219.981 147.102H231.232V150.046H219.981Z" fill="#0F1E31"/>
<path d="M264.703 150.604C260.27 150.604 256.869 149.504 254.503 147.305C252.136 145.071 250.952 141.856 250.952 137.66V126.899C250.952 122.703 252.136 119.505 254.503 117.305C256.869 115.072 260.27 113.955 264.703 113.955C269.137 113.955 272.537 115.072 274.904 117.305C277.271 119.505 278.454 122.703 278.454 126.899V137.66C278.454 141.856 277.271 145.071 274.904 147.305C272.537 149.504 269.137 150.604 264.703 150.604ZM264.703 147.66C267.97 147.66 270.47 146.797 272.204 145.071C273.97 143.345 274.854 140.875 274.854 137.66V126.899C274.854 123.684 273.97 121.214 272.204 119.488C270.47 117.762 267.97 116.899 264.703 116.899C261.436 116.899 258.92 117.762 257.153 119.488C255.419 121.214 254.553 123.684 254.553 126.899V137.66C254.553 140.875 255.419 143.345 257.153 145.071C258.92 146.797 261.436 147.66 264.703 147.66Z" fill="#0F1E31"/>
<path d="M308.788 117.457H297.437V114.513H323.739V117.457H312.388V150.046H308.788V117.457Z" fill="#0F1E31"/>
<path d="M356.486 150.604C352.052 150.604 348.652 149.504 346.285 147.305C343.918 145.071 342.735 141.856 342.735 137.66V126.899C342.735 122.703 343.918 119.505 346.285 117.305C348.652 115.072 352.052 113.955 356.486 113.955C360.919 113.955 364.32 115.072 366.686 117.305C369.053 119.505 370.237 122.703 370.237 126.899V137.66C370.237 141.856 369.053 145.071 366.686 147.305C364.32 149.504 360.919 150.604 356.486 150.604ZM356.486 147.66C359.753 147.66 362.253 146.797 363.986 145.071C365.753 143.345 366.636 140.875 366.636 137.66V126.899C366.636 123.684 365.753 121.214 363.986 119.488C362.253 117.762 359.753 116.899 356.486 116.899C353.219 116.899 350.702 117.762 348.935 119.488C347.202 121.214 346.335 123.684 346.335 126.899V137.66C346.335 140.875 347.202 143.345 348.935 145.071C350.702 146.797 353.219 147.66 356.486 147.66Z" fill="#0F1E31"/>
<path d="M414.616 97.5124C418.635 100.995 424.474 102.736 432.132 102.736C435.989 102.736 439.221 102.355 441.828 101.593C444.489 100.777 446.743 99.6071 448.59 98.0837C450.437 96.5602 452.229 94.5471 453.967 92.0443L445.82 86.005C444.245 88.7254 442.452 90.7113 440.443 91.9627C438.487 93.1597 435.717 93.7582 432.132 93.7582C427.95 93.7582 424.881 92.7789 422.926 90.8201C421.025 88.807 420.074 85.8418 420.074 81.9244V64.4592C420.074 60.5418 421.025 57.6037 422.926 55.645C424.881 53.6319 427.95 52.6254 432.132 52.6254C435.446 52.6254 437.999 53.1966 439.791 54.3392C441.638 55.4818 443.403 57.3589 445.087 59.9705L453.316 54.2576C451.306 50.7211 448.59 48.0822 445.168 46.3412C441.801 44.5457 437.455 43.6479 432.132 43.6479C424.474 43.6479 418.635 45.4162 414.616 48.9528C410.596 52.4349 408.587 57.6037 408.587 64.4592V81.9244C408.587 88.7798 410.596 93.9758 414.616 97.5124Z" fill="#0F1E31"/>
<path d="M211.601 101.593C213.122 102.355 214.996 102.736 217.223 102.736C219.45 102.736 221.297 102.355 222.763 101.593C224.284 100.831 225.588 99.5527 226.674 97.7572C227.815 95.9073 228.847 93.3773 229.77 90.1672L242.969 44.6273H237.58C233.977 44.6273 230.82 47.0347 229.865 50.5081L219.015 90.004C218.635 91.4186 218.038 92.126 217.223 92.126C216.408 92.126 215.811 91.4186 215.431 90.004L204.783 51.2432C203.709 47.3356 200.156 44.6273 196.104 44.6273H191.477L204.676 90.1672C205.599 93.3773 206.604 95.9073 207.691 97.7572C208.831 99.5527 210.135 100.831 211.601 101.593Z" fill="#0F1E31"/>
<path fill-rule="evenodd" clip-rule="evenodd" d="M249.345 97.1859C252.496 100.233 257.683 101.756 264.907 101.756H301.471V78.5782H309.699C311.872 78.5782 313.61 78.9591 314.914 79.7208C316.217 80.4825 317.249 81.5979 318.01 83.0669C318.77 84.4816 319.531 86.4947 320.291 89.1063L322.342 96.0288C323.348 99.4258 326.469 101.756 330.012 101.756H336.178L332.431 89.1879C331.236 85.2705 329.932 82.1692 328.52 79.884C327.108 77.5989 325.017 75.9938 322.246 75.0689C325.723 74.416 328.438 72.9469 330.394 70.6618C332.403 68.3766 333.408 65.357 333.408 61.6028C333.408 55.7811 331.752 51.51 328.438 48.7896C325.125 46.0147 319.992 44.6273 313.04 44.6273H289.983V92.7789H264.907C261.919 92.7789 259.693 92.0715 258.226 90.6569C256.814 89.1879 256.108 86.9571 256.108 83.9647V77.6805H283.475V76.7031C283.475 72.2848 279.893 68.7031 275.475 68.7031H256.108V62.4189C256.108 59.372 256.814 57.1413 258.226 55.7266C259.693 54.312 261.919 53.6047 264.907 53.6047H283.475V52.6273C283.475 48.209 279.893 44.6273 275.475 44.6273H264.907C257.683 44.6273 252.496 46.1507 249.345 49.1976C246.195 52.2445 244.62 56.6516 244.62 62.4189V83.9647C244.62 89.732 246.195 94.1391 249.345 97.1859ZM313.366 69.6008C315.864 69.6008 317.901 68.9479 319.476 67.6421C321.106 66.2819 321.921 64.2688 321.921 61.6028C321.921 58.9367 321.106 56.9508 319.476 55.645C317.901 54.2848 315.864 53.6047 313.366 53.6047H301.471V69.6008H313.366Z" fill="#0F1E31"/>
<path d="M338.612 53.6047H355.803V101.756H359.291C363.709 101.756 367.291 98.1745 367.291 93.7563V53.6047H384.482V44.6273H338.612V53.6047Z" fill="#0F1E31"/>
<path d="M390.304 44.6273H393.792C398.211 44.6273 401.792 48.209 401.792 52.6273V101.756H398.304C393.886 101.756 390.304 98.1745 390.304 93.7563V44.6273Z" fill="#0F1E31"/>
<path fill-rule="evenodd" clip-rule="evenodd" d="M470.86 88.4534L468.696 95.9692C467.71 99.3961 464.574 101.756 461.008 101.756H455.543L469.475 56.2163C470.452 52.9518 471.484 50.4218 472.571 48.6263C473.657 46.8308 474.933 45.5522 476.4 44.7905C477.921 44.0288 479.795 43.6479 482.022 43.6479C484.249 43.6479 486.095 44.0288 487.562 44.7905C489.028 45.5522 490.305 46.8308 491.391 48.6263C492.532 50.4218 493.591 52.9518 494.569 56.2163L508.501 101.756H503.035C499.469 101.756 496.333 99.3961 495.347 95.9692L493.183 88.4534H470.86ZM490.658 79.884L483.814 56.3795C483.434 54.9649 482.836 54.2576 482.022 54.2576C481.207 54.2576 480.609 54.9649 480.229 56.3795L473.385 79.884H490.658Z" fill="#0F1E31"/>
<path d="M516.502 97.1859C519.543 100.233 524.541 101.756 531.493 101.756H549.743V100.779C549.743 96.3606 546.161 92.7789 541.743 92.7789H531.493C528.777 92.7789 526.767 92.0715 525.464 90.6569C524.16 89.1879 523.509 86.9571 523.509 83.9647V52.6273C523.509 48.209 519.927 44.6273 515.509 44.6273H512.021V83.9647C512.021 89.732 513.514 94.1391 516.502 97.1859Z" fill="#0F1E31"/>
<defs>
<linearGradient id="paint0_linear_3_680" x1="36.1829" y1="43.5701" x2="36.1829" y2="150.348" gradientUnits="userSpaceOnUse">
<stop offset="0.161458" stop-color="#F7CA2E"/>
<stop offset="0.848958" stop-color="#ED373C"/>
<stop offset="1" stop-color="#B0070C"/>
</linearGradient>
<linearGradient id="paint1_linear_3_680" x1="109.296" y1="-2.60698e-05" x2="109.296" y2="150.338" gradientUnits="userSpaceOnUse">
<stop stop-color="#34BDFB"/>
<stop offset="0.411458" stop-color="#34BDFB"/>
<stop offset="1" stop-color="#3762D8"/>
</linearGradient>
<linearGradient id="paint2_linear_3_680" x1="16.455" y1="52.7306" x2="41.5114" y2="139.119" gradientUnits="userSpaceOnUse">
<stop stop-color="#34BDFB"/>
<stop offset="0.84407" stop-color="#3762D8"/>
<stop offset="1" stop-color="#193EA5"/>
</linearGradient>
<linearGradient id="paint3_linear_3_680" x1="107.932" y1="0.583715" x2="107.932" y2="150.339" gradientUnits="userSpaceOnUse">
<stop offset="0.453125" stop-color="#F7CA2E"/>
<stop offset="0.979167" stop-color="#ED373C"/>
</linearGradient>
<linearGradient id="paint4_linear_3_680" x1="107.932" y1="0.583715" x2="107.932" y2="150.339" gradientUnits="userSpaceOnUse">
<stop offset="0.453125" stop-color="#F7CA2E"/>
<stop offset="0.979167" stop-color="#ED373C"/>
</linearGradient>
<linearGradient id="paint5_linear_3_680" x1="160.408" y1="18.6988" x2="91.1321" y2="161.691" gradientUnits="userSpaceOnUse">
<stop stop-color="white" stop-opacity="0"/>
<stop offset="0.696726" stop-color="white"/>
<stop offset="0.964161" stop-color="white" stop-opacity="0"/>
</linearGradient>
<linearGradient id="paint6_linear_3_680" x1="122.664" y1="35.1538" x2="38.1455" y2="149.59" gradientUnits="userSpaceOnUse">
<stop stop-color="white" stop-opacity="0"/>
<stop offset="0.696726" stop-color="white"/>
<stop offset="0.964161" stop-color="white" stop-opacity="0"/>
</linearGradient>
<linearGradient id="paint7_linear_3_680" x1="162.306" y1="35.9017" x2="77.7869" y2="150.338" gradientUnits="userSpaceOnUse">
<stop stop-color="white" stop-opacity="0"/>
<stop offset="0.696726" stop-color="white"/>
<stop offset="0.964161" stop-color="white" stop-opacity="0"/>
</linearGradient>
<linearGradient id="paint8_linear_3_680" x1="8.22742" y1="64.3239" x2="40.7633" y2="122.664" gradientUnits="userSpaceOnUse">
<stop stop-color="white" stop-opacity="0"/>
<stop offset="0.411458" stop-color="white"/>
<stop offset="1" stop-color="white" stop-opacity="0"/>
</linearGradient>
<clipPath id="clip0_3_680">
<rect width="182.5" height="150.338" fill="white"/>
</clipPath>
</defs>
</svg>
